<mxfile host="app.diagrams.net" modified="2023-07-11T09:04:45.941Z" agent="Mozilla/5.0 (Windows NT 10.0; Win64; x64) AppleWebKit/537.36 (KHTML, like Gecko) Chrome/114.0.0.0 Safari/537.36 Edg/114.0.1823.67" etag="4aS91lUMzgaRc6bfb1ON" version="21.6.1" type="device">
  <diagram id="C5RBs43oDa-KdzZeNtuy" name="Page-1">
    <mxGraphModel dx="1253" dy="948" grid="1" gridSize="10" guides="1" tooltips="1" connect="1" arrows="1" fold="1" page="1" pageScale="1" pageWidth="827" pageHeight="1169" math="0" shadow="0">
      <root>
        <mxCell id="WIyWlLk6GJQsqaUBKTNV-0" />
        <mxCell id="WIyWlLk6GJQsqaUBKTNV-1" parent="WIyWlLk6GJQsqaUBKTNV-0" />
        <mxCell id="2aw_UvezBeF1hXoOp1Uh-0" value="DataBase" style="swimlane;fontStyle=1;align=center;verticalAlign=top;childLayout=stackLayout;horizontal=1;startSize=26;horizontalStack=0;resizeParent=1;resizeParentMax=0;resizeLast=0;collapsible=1;marginBottom=0;whiteSpace=wrap;html=1;fontSize=16;" vertex="1" parent="WIyWlLk6GJQsqaUBKTNV-1">
          <mxGeometry x="310" y="300" width="250" height="170" as="geometry" />
        </mxCell>
        <mxCell id="2aw_UvezBeF1hXoOp1Uh-1" value="_Cursor: DBCursor" style="text;strokeColor=none;fillColor=none;align=left;verticalAlign=top;spacingLeft=4;spacingRight=4;overflow=hidden;rotatable=0;points=[[0,0.5],[1,0.5]];portConstraint=eastwest;whiteSpace=wrap;html=1;fontSize=16;fontStyle=1" vertex="1" parent="2aw_UvezBeF1hXoOp1Uh-0">
          <mxGeometry y="26" width="250" height="26" as="geometry" />
        </mxCell>
        <mxCell id="2aw_UvezBeF1hXoOp1Uh-2" value="" style="line;strokeWidth=1;fillColor=none;align=left;verticalAlign=middle;spacingTop=-1;spacingLeft=3;spacingRight=3;rotatable=0;labelPosition=right;points=[];portConstraint=eastwest;strokeColor=inherit;fontSize=16;fontStyle=1" vertex="1" parent="2aw_UvezBeF1hXoOp1Uh-0">
          <mxGeometry y="52" width="250" height="8" as="geometry" />
        </mxCell>
        <mxCell id="2aw_UvezBeF1hXoOp1Uh-3" value="ConnectDB: bool&lt;br&gt;DropTable: bool&lt;br&gt;CreateTable: bool&lt;br&gt;InsertTable: bool&lt;br&gt;SelectFromTable: bool" style="text;strokeColor=none;fillColor=none;align=left;verticalAlign=top;spacingLeft=4;spacingRight=4;overflow=hidden;rotatable=0;points=[[0,0.5],[1,0.5]];portConstraint=eastwest;whiteSpace=wrap;html=1;fontSize=16;fontStyle=1" vertex="1" parent="2aw_UvezBeF1hXoOp1Uh-0">
          <mxGeometry y="60" width="250" height="110" as="geometry" />
        </mxCell>
        <mxCell id="2aw_UvezBeF1hXoOp1Uh-4" value="pymysql" style="shape=folder;fontStyle=1;spacingTop=10;tabWidth=40;tabHeight=14;tabPosition=left;html=1;whiteSpace=wrap;fontSize=16;" vertex="1" parent="WIyWlLk6GJQsqaUBKTNV-1">
          <mxGeometry x="310" y="200" width="70" height="50" as="geometry" />
        </mxCell>
        <mxCell id="2aw_UvezBeF1hXoOp1Uh-5" value="数据库模块流程图" style="swimlane;whiteSpace=wrap;html=1;fontSize=16;fillColor=#fff2cc;strokeColor=#d6b656;fontStyle=1" vertex="1" parent="WIyWlLk6GJQsqaUBKTNV-1">
          <mxGeometry x="60" y="530" width="760" height="450" as="geometry" />
        </mxCell>
        <mxCell id="2aw_UvezBeF1hXoOp1Uh-17" style="edgeStyle=none;curved=1;rounded=0;orthogonalLoop=1;jettySize=auto;html=1;exitX=1;exitY=0.5;exitDx=0;exitDy=0;entryX=0;entryY=0.5;entryDx=0;entryDy=0;fontSize=12;startSize=8;endSize=8;fontStyle=1" edge="1" parent="2aw_UvezBeF1hXoOp1Uh-5" source="2aw_UvezBeF1hXoOp1Uh-14" target="2aw_UvezBeF1hXoOp1Uh-16">
          <mxGeometry relative="1" as="geometry" />
        </mxCell>
        <mxCell id="2aw_UvezBeF1hXoOp1Uh-18" value="否" style="edgeLabel;html=1;align=center;verticalAlign=middle;resizable=0;points=[];fontSize=16;fontStyle=1" vertex="1" connectable="0" parent="2aw_UvezBeF1hXoOp1Uh-17">
          <mxGeometry relative="1" as="geometry">
            <mxPoint x="1" as="offset" />
          </mxGeometry>
        </mxCell>
        <mxCell id="2aw_UvezBeF1hXoOp1Uh-19" style="edgeStyle=none;curved=1;rounded=0;orthogonalLoop=1;jettySize=auto;html=1;exitX=0.5;exitY=1;exitDx=0;exitDy=0;entryX=0.5;entryY=0;entryDx=0;entryDy=0;fontSize=12;startSize=8;endSize=8;fontStyle=1" edge="1" parent="2aw_UvezBeF1hXoOp1Uh-5" source="2aw_UvezBeF1hXoOp1Uh-14" target="2aw_UvezBeF1hXoOp1Uh-15">
          <mxGeometry relative="1" as="geometry" />
        </mxCell>
        <mxCell id="2aw_UvezBeF1hXoOp1Uh-20" value="是" style="edgeLabel;html=1;align=center;verticalAlign=middle;resizable=0;points=[];fontSize=16;fontStyle=1" vertex="1" connectable="0" parent="2aw_UvezBeF1hXoOp1Uh-19">
          <mxGeometry relative="1" as="geometry">
            <mxPoint as="offset" />
          </mxGeometry>
        </mxCell>
        <mxCell id="2aw_UvezBeF1hXoOp1Uh-14" value="是否存在表" style="rhombus;whiteSpace=wrap;html=1;fontSize=16;fillColor=#ffe6cc;strokeColor=none;fontStyle=1" vertex="1" parent="2aw_UvezBeF1hXoOp1Uh-5">
          <mxGeometry x="410" y="250" width="120" height="80" as="geometry" />
        </mxCell>
        <mxCell id="2aw_UvezBeF1hXoOp1Uh-25" style="edgeStyle=none;rounded=0;orthogonalLoop=1;jettySize=auto;html=1;exitX=1;exitY=0.5;exitDx=0;exitDy=0;entryX=0.5;entryY=1;entryDx=0;entryDy=0;fontSize=12;startSize=8;endSize=8;strokeColor=default;fontStyle=1" edge="1" parent="2aw_UvezBeF1hXoOp1Uh-5" source="2aw_UvezBeF1hXoOp1Uh-15" target="2aw_UvezBeF1hXoOp1Uh-16">
          <mxGeometry relative="1" as="geometry">
            <Array as="points">
              <mxPoint x="680" y="400" />
            </Array>
          </mxGeometry>
        </mxCell>
        <mxCell id="2aw_UvezBeF1hXoOp1Uh-15" value="DropTable" style="rounded=1;whiteSpace=wrap;html=1;fontSize=16;fillColor=#e1d5e7;strokeColor=none;fontStyle=1" vertex="1" parent="2aw_UvezBeF1hXoOp1Uh-5">
          <mxGeometry x="410" y="370" width="120" height="60" as="geometry" />
        </mxCell>
        <mxCell id="2aw_UvezBeF1hXoOp1Uh-16" value="CreateTable" style="rounded=1;whiteSpace=wrap;html=1;fontSize=16;fillColor=#fff2cc;strokeColor=none;fontStyle=1" vertex="1" parent="2aw_UvezBeF1hXoOp1Uh-5">
          <mxGeometry x="620" y="260" width="120" height="60" as="geometry" />
        </mxCell>
        <mxCell id="2aw_UvezBeF1hXoOp1Uh-30" style="edgeStyle=none;curved=1;rounded=0;orthogonalLoop=1;jettySize=auto;html=1;exitX=1;exitY=0.5;exitDx=0;exitDy=0;entryX=0;entryY=0.5;entryDx=0;entryDy=0;fontSize=12;startSize=8;endSize=8;fontStyle=1" edge="1" parent="2aw_UvezBeF1hXoOp1Uh-5" source="2aw_UvezBeF1hXoOp1Uh-28" target="2aw_UvezBeF1hXoOp1Uh-29">
          <mxGeometry relative="1" as="geometry" />
        </mxCell>
        <mxCell id="2aw_UvezBeF1hXoOp1Uh-31" value="否" style="edgeLabel;html=1;align=center;verticalAlign=middle;resizable=0;points=[];fontSize=16;fontStyle=1" vertex="1" connectable="0" parent="2aw_UvezBeF1hXoOp1Uh-30">
          <mxGeometry relative="1" as="geometry">
            <mxPoint as="offset" />
          </mxGeometry>
        </mxCell>
        <mxCell id="2aw_UvezBeF1hXoOp1Uh-34" style="edgeStyle=none;rounded=0;orthogonalLoop=1;jettySize=auto;html=1;exitX=0.5;exitY=1;exitDx=0;exitDy=0;entryX=0;entryY=0.5;entryDx=0;entryDy=0;fontSize=12;startSize=8;endSize=8;fontStyle=1" edge="1" parent="2aw_UvezBeF1hXoOp1Uh-5" source="2aw_UvezBeF1hXoOp1Uh-28" target="2aw_UvezBeF1hXoOp1Uh-14">
          <mxGeometry relative="1" as="geometry">
            <Array as="points">
              <mxPoint x="260" y="290" />
            </Array>
          </mxGeometry>
        </mxCell>
        <mxCell id="2aw_UvezBeF1hXoOp1Uh-35" value="是" style="edgeLabel;html=1;align=center;verticalAlign=middle;resizable=0;points=[];fontSize=16;fontStyle=1" vertex="1" connectable="0" parent="2aw_UvezBeF1hXoOp1Uh-34">
          <mxGeometry relative="1" as="geometry">
            <mxPoint as="offset" />
          </mxGeometry>
        </mxCell>
        <mxCell id="2aw_UvezBeF1hXoOp1Uh-38" style="edgeStyle=none;curved=1;rounded=0;orthogonalLoop=1;jettySize=auto;html=1;exitX=0.5;exitY=1;exitDx=0;exitDy=0;entryX=0.5;entryY=0;entryDx=0;entryDy=0;fontSize=12;startSize=8;endSize=8;fontStyle=1" edge="1" parent="2aw_UvezBeF1hXoOp1Uh-5" source="2aw_UvezBeF1hXoOp1Uh-28" target="2aw_UvezBeF1hXoOp1Uh-36">
          <mxGeometry relative="1" as="geometry" />
        </mxCell>
        <mxCell id="2aw_UvezBeF1hXoOp1Uh-39" style="edgeStyle=none;rounded=0;orthogonalLoop=1;jettySize=auto;html=1;exitX=0.5;exitY=1;exitDx=0;exitDy=0;entryX=1;entryY=0.5;entryDx=0;entryDy=0;fontSize=12;startSize=8;endSize=8;fontStyle=1" edge="1" parent="2aw_UvezBeF1hXoOp1Uh-5" source="2aw_UvezBeF1hXoOp1Uh-28" target="2aw_UvezBeF1hXoOp1Uh-37">
          <mxGeometry relative="1" as="geometry">
            <Array as="points">
              <mxPoint x="260" y="290" />
            </Array>
          </mxGeometry>
        </mxCell>
        <mxCell id="2aw_UvezBeF1hXoOp1Uh-28" value="是否连接数据库" style="rhombus;whiteSpace=wrap;html=1;fontSize=16;fillColor=#f5f5f5;fontColor=#333333;strokeColor=none;fontStyle=1" vertex="1" parent="2aw_UvezBeF1hXoOp1Uh-5">
          <mxGeometry x="180" y="100" width="160" height="80" as="geometry" />
        </mxCell>
        <mxCell id="2aw_UvezBeF1hXoOp1Uh-32" style="edgeStyle=none;rounded=0;orthogonalLoop=1;jettySize=auto;html=1;exitX=0.5;exitY=0;exitDx=0;exitDy=0;entryX=0.5;entryY=0;entryDx=0;entryDy=0;fontSize=12;startSize=8;endSize=8;fontStyle=1" edge="1" parent="2aw_UvezBeF1hXoOp1Uh-5" source="2aw_UvezBeF1hXoOp1Uh-29" target="2aw_UvezBeF1hXoOp1Uh-28">
          <mxGeometry relative="1" as="geometry">
            <Array as="points">
              <mxPoint x="470" y="60" />
              <mxPoint x="260" y="60" />
            </Array>
          </mxGeometry>
        </mxCell>
        <mxCell id="2aw_UvezBeF1hXoOp1Uh-29" value="ConnectDB" style="rounded=1;whiteSpace=wrap;html=1;fontSize=16;fillColor=#dae8fc;strokeColor=none;fontStyle=1" vertex="1" parent="2aw_UvezBeF1hXoOp1Uh-5">
          <mxGeometry x="410" y="110" width="120" height="60" as="geometry" />
        </mxCell>
        <mxCell id="2aw_UvezBeF1hXoOp1Uh-36" value="InsertTable" style="rounded=1;whiteSpace=wrap;html=1;fontSize=16;fillColor=#f8cecc;strokeColor=none;fontStyle=1" vertex="1" parent="2aw_UvezBeF1hXoOp1Uh-5">
          <mxGeometry x="200" y="370" width="120" height="60" as="geometry" />
        </mxCell>
        <mxCell id="2aw_UvezBeF1hXoOp1Uh-37" value="SelectFromTable" style="rounded=1;whiteSpace=wrap;html=1;fontSize=16;fillColor=#d5e8d4;strokeColor=none;fontStyle=1" vertex="1" parent="2aw_UvezBeF1hXoOp1Uh-5">
          <mxGeometry x="30" y="260" width="150" height="60" as="geometry" />
        </mxCell>
      </root>
    </mxGraphModel>
  </diagram>
</mxfile>
